<svg id="Vector" xmlns="http://www.w3.org/2000/svg" viewBox="0 0 435.99 503.5"><defs><style>.cls-1{fill:none;stroke:#fff;stroke-miterlimit:10;stroke-width:21px;}.cls-2{fill:#fff;}</style></defs><title>Click-Icon</title><path class="cls-1" d="M213,406V138s1-31,39-31,41,31,41,31V296s-1-36,36-35c36,1,36.33,36.33,36.33,36.33S364,262,401,262s37.67,35.33,37.67,35.33S440,262,478,262c34.12,0,34,37,34,37V474s-7,51-43,51H265l-62-18L102,409s-15-25,7-44,41-10,41-10Z" transform="translate(-86.51 -32)"/><path class="cls-2" d="M358,138a106,106,0,1,0-145,98.57V213.49a85,85,0,1,1,80-1.06v23.32A106.16,106.16,0,0,0,358,138Z" transform="translate(-86.51 -32)"/></svg>